<svg width="62" height="58" viewBox="0 0 62 58" fill="none" xmlns="http://www.w3.org/2000/svg">
<path d="M57.6954 0H35.3996C34.8979 0 34.4914 0.406491 34.4914 0.908157C34.4914 1.40982 34.8979 1.81631 35.3996 1.81631H57.6954C59.0675 1.81631 60.1838 2.93262 60.1838 4.30467V27.6904C60.1838 29.0625 59.0675 30.1788 57.6954 30.1788H54.1343C53.9429 30.1788 53.7565 30.2392 53.6016 30.3515L47.4091 34.8367V31.087C47.4091 30.5853 47.0026 30.1788 46.5009 30.1788H26.789C25.4169 30.1788 24.3007 29.0625 24.3007 27.6904V4.30467C24.3007 2.93262 25.417 1.81631 26.789 1.81631H31.4424C31.9441 1.81631 32.3506 1.40982 32.3506 0.908157C32.3506 0.406491 31.9441 0 31.4424 0H26.789C24.4154 0 22.4844 1.93098 22.4844 4.30467V27.6904C22.4844 30.0641 24.4155 31.9951 26.789 31.9951H45.5927V36.6158C45.5927 36.957 45.7841 37.2694 46.088 37.4247C46.4101 37.5782 46.7253 37.5538 47.0337 37.3514L54.4286 31.9952H57.6954C60.0691 31.9952 62.0001 30.0642 62.0001 27.6906V4.30467C62.0001 1.93111 60.069 0 57.6954 0Z" fill="#CB8734"/>
<path d="M52.7452 48.0021C52.5558 46.6486 51.7591 45.4979 50.5571 44.843L46.5186 42.6427C46.0782 42.4023 45.5266 42.5651 45.2866 43.0058C45.0469 43.4462 45.2094 43.9978 45.6499 44.2376L49.6879 46.4378C50.3789 46.8142 50.8367 47.475 50.9462 48.2523C50.9468 48.2573 50.9474 48.2622 50.9481 48.2671C51.054 49.0522 50.7868 49.8181 50.2153 50.3676L49.62 50.9391L34.711 42.5501L36.4631 41.0088C37.2106 40.3512 38.2987 40.2298 39.1716 40.7066L41.6914 42.0799C42.1318 42.3197 42.6834 42.1575 42.9235 41.717C43.1634 41.2766 43.0011 40.725 42.5606 40.4849L40.0414 39.112C38.5019 38.2714 36.5815 38.4854 35.2636 39.6449L31.1804 43.2365C30.3441 43.9721 29.1234 44.0404 28.2122 43.4021C22.0619 39.0935 17.5956 34.3534 14.558 28.9116C14.0458 27.9928 14.1889 26.8596 14.9139 26.0921L18.1459 22.6736C19.3511 21.3976 19.6336 19.486 18.849 17.9167L13.41 7.03868C12.804 5.82526 11.6912 4.98939 10.357 4.74528C9.02186 4.50068 7.68445 4.88901 6.68717 5.80988L4.62141 7.71835C2.33794 9.82769 0.82677 12.5556 0.251361 15.6067C-0.325137 18.663 0.0944319 21.746 1.46454 24.5235C1.47059 24.5363 1.47628 24.5475 1.48101 24.5567C2.3492 26.3124 3.288 28.0293 4.26953 29.6569C4.43336 29.9308 4.61003 30.2202 4.79433 30.5172C5.0589 30.9432 5.61869 31.0742 6.04492 30.8098C6.47103 30.5452 6.60205 29.9853 6.33759 29.5592C6.1585 29.2706 5.98704 28.9897 5.8266 28.7216C4.87049 27.1362 3.95725 25.4662 3.11218 23.7577C3.10746 23.7478 3.10261 23.7381 3.09765 23.7284C0.710284 18.8979 1.77694 12.9708 5.67802 9.22177L13.868 24.5546L13.5938 24.8447C12.3213 26.1917 12.0712 28.1817 12.9717 29.7966C16.1461 35.4835 20.7902 40.4205 27.1701 44.8899C27.9025 45.4028 28.7482 45.6558 29.5911 45.6558C30.5897 45.6558 31.5841 45.3003 32.38 44.6003L33.266 43.821L48.2516 52.253L48.2365 52.2676C44.3738 55.9787 38.5873 56.8233 33.838 54.369C23.5437 49.048 15.175 42.014 8.96459 33.463C8.66974 33.0571 8.10184 32.9669 7.69607 33.2619C7.29019 33.5568 7.20022 34.1245 7.49495 34.5304C13.8734 43.3127 22.4558 50.5303 33.0039 55.9829C35.0802 57.0557 37.3285 57.5784 39.5621 57.5784C43.1808 57.5784 46.7594 56.2056 49.4944 53.5779L51.4735 51.6775C52.4606 50.7283 52.9256 49.4091 52.7518 48.0536C52.7501 48.0363 52.7478 48.0193 52.7452 48.0021ZM7.05431 7.94345L7.9196 7.14415C8.49307 6.61463 9.26198 6.39171 10.03 6.53193C10.797 6.67227 11.4367 7.15275 11.7852 7.85069L17.2245 18.7292C17.6693 19.619 17.509 20.7029 16.8258 21.4262L15.1838 23.163L7.05431 7.94345Z" fill="#CB8734"/>
<path d="M54.6796 16.8583C54.6796 15.1091 53.2564 13.6859 51.5072 13.6859C49.7581 13.6859 48.335 15.1091 48.335 16.8583C48.335 18.6074 49.7581 20.0305 51.5072 20.0305C53.2564 20.0305 54.6796 18.6074 54.6796 16.8583ZM50.1512 16.8583C50.1512 16.1106 50.7594 15.5022 51.5071 15.5022C52.2548 15.5022 52.8632 16.1106 52.8632 16.8583C52.8632 17.606 52.2548 18.2142 51.5071 18.2142C50.7594 18.2142 50.1512 17.606 50.1512 16.8583Z" fill="#CB8734"/>
<path d="M45.4149 16.8583C45.4149 15.1091 43.9918 13.6859 42.2427 13.6859C40.4935 13.6859 39.0703 15.1091 39.0703 16.8583C39.0703 18.6074 40.4935 20.0305 42.2427 20.0305C43.9918 20.0305 45.4149 18.6074 45.4149 16.8583ZM40.8865 16.8583C40.8865 16.1106 41.4948 15.5022 42.2426 15.5022C42.9903 15.5022 43.5985 16.1106 43.5985 16.8583C43.5985 17.606 42.9903 18.2142 42.2426 18.2142C41.4948 18.2142 40.8865 17.606 40.8865 16.8583Z" fill="#CB8734"/>
<path d="M29.8057 16.8583C29.8057 18.6074 31.2287 20.0305 32.978 20.0305C34.7274 20.0305 36.1504 18.6074 36.1504 16.8583C36.1504 15.1091 34.7273 13.6859 32.978 13.6859C31.2288 13.6859 29.8057 15.1091 29.8057 16.8583ZM32.978 15.5022C33.7258 15.5022 34.3341 16.1106 34.3341 16.8583C34.3341 17.606 33.7258 18.2142 32.978 18.2142C32.2303 18.2142 31.6221 17.606 31.6221 16.8583C31.6221 16.1106 32.2303 15.5022 32.978 15.5022Z" fill="#CB8734"/>
</svg>
